<svg xmlns="http://www.w3.org/2000/svg" viewBox="0 0 700 400" width="700" height="400">
  <!-- Background -->
  <rect width="700" height="400" fill="#292b2c" rx="10" ry="10"/>
  
  <!-- Title -->
  <text x="350" y="40" font-family="Arial, sans-serif" font-size="24" fill="#17a2b8" text-anchor="middle" font-weight="bold">Data Analysis and Interpretation</text>
  
  <!-- Main visualization area -->
  <g transform="translate(350, 200)">
    <!-- Data chart background -->
    <rect x="-250" y="-120" width="500" height="250" rx="10" ry="10" fill="#343a40"/>
    
    <!-- Chart grid -->
    <g stroke="#6c757d" stroke-width="1" stroke-dasharray="5,5">
      <!-- Horizontal grid lines -->
      <line x1="-220" y1="-90" x2="220" y2="-90"/>
      <line x1="-220" y1="-60" x2="220" y2="-60"/>
      <line x1="-220" y1="-30" x2="220" y2="-30"/>
      <line x1="-220" y1="0" x2="220" y2="0"/>
      <line x1="-220" y1="30" x2="220" y2="30"/>
      <line x1="-220" y1="60" x2="220" y2="60"/>
      <line x1="-220" y1="90" x2="220" y2="90"/>
      
      <!-- Vertical grid lines -->
      <line x1="-180" y1="-100" x2="-180" y2="100"/>
      <line x1="-120" y1="-100" x2="-120" y2="100"/>
      <line x1="-60" y1="-100" x2="-60" y2="100"/>
      <line x1="0" y1="-100" x2="0" y2="100"/>
      <line x1="60" y1="-100" x2="60" y2="100"/>
      <line x1="120" y1="-100" x2="120" y2="100"/>
      <line x1="180" y1="-100" x2="180" y2="100"/>
    </g>
    
    <!-- X and Y axes -->
    <line x1="-220" y1="100" x2="220" y2="100" stroke="#ffffff" stroke-width="2"/>
    <line x1="-220" y1="-100" x2="-220" y2="100" stroke="#ffffff" stroke-width="2"/>
    
    <!-- X-axis labels -->
    <text x="-180" y="115" font-family="Arial, sans-serif" font-size="12" fill="#ffffff" text-anchor="middle">Group 1</text>
    <text x="-120" y="115" font-family="Arial, sans-serif" font-size="12" fill="#ffffff" text-anchor="middle">Group 2</text>
    <text x="-60" y="115" font-family="Arial, sans-serif" font-size="12" fill="#ffffff" text-anchor="middle">Group 3</text>
    <text x="0" y="115" font-family="Arial, sans-serif" font-size="12" fill="#ffffff" text-anchor="middle">Group 4</text>
    <text x="60" y="115" font-family="Arial, sans-serif" font-size="12" fill="#ffffff" text-anchor="middle">Group 5</text>
    <text x="120" y="115" font-family="Arial, sans-serif" font-size="12" fill="#ffffff" text-anchor="middle">Group 6</text>
    <text x="180" y="115" font-family="Arial, sans-serif" font-size="12" fill="#ffffff" text-anchor="middle">Group 7</text>
    
    <!-- Y-axis labels -->
    <text x="-230" y="-90" font-family="Arial, sans-serif" font-size="12" fill="#ffffff" text-anchor="end">100</text>
    <text x="-230" y="-60" font-family="Arial, sans-serif" font-size="12" fill="#ffffff" text-anchor="end">80</text>
    <text x="-230" y="-30" font-family="Arial, sans-serif" font-size="12" fill="#ffffff" text-anchor="end">60</text>
    <text x="-230" y="0" font-family="Arial, sans-serif" font-size="12" fill="#ffffff" text-anchor="end">40</text>
    <text x="-230" y="30" font-family="Arial, sans-serif" font-size="12" fill="#ffffff" text-anchor="end">20</text>
    <text x="-230" y="100" font-family="Arial, sans-serif" font-size="12" fill="#ffffff" text-anchor="end">0</text>
    
    <!-- Axis titles -->
    <text x="0" y="140" font-family="Arial, sans-serif" font-size="14" fill="#ffffff" text-anchor="middle">Experimental Groups</text>
    <text x="-250" y="-50" font-family="Arial, sans-serif" font-size="14" fill="#ffffff" text-anchor="middle" transform="rotate(-90, -250, -50)">Measurement (units)</text>
    
    <!-- Bar chart data -->
    <rect x="-200" y="-30" width="40" height="130" fill="#007bff" opacity="0.8"/>
    <rect x="-140" y="-70" width="40" height="170" fill="#007bff" opacity="0.8"/>
    <rect x="-80" y="-55" width="40" height="155" fill="#007bff" opacity="0.8"/>
    <rect x="-20" y="-85" width="40" height="185" fill="#007bff" opacity="0.8"/>
    <rect x="40" y="-70" width="40" height="170" fill="#007bff" opacity="0.8"/>
    <rect x="100" y="-45" width="40" height="145" fill="#007bff" opacity="0.8"/>
    <rect x="160" y="-65" width="40" height="165" fill="#007bff" opacity="0.8"/>
    
    <!-- Error bars -->
    <line x1="-180" y1="-40" x2="-180" y2="-20" stroke="#ffffff" stroke-width="2"/>
    <line x1="-190" y1="-40" x2="-170" y2="-40" stroke="#ffffff" stroke-width="2"/>
    <line x1="-190" y1="-20" x2="-170" y2="-20" stroke="#ffffff" stroke-width="2"/>
    
    <line x1="-120" y1="-80" x2="-120" y2="-60" stroke="#ffffff" stroke-width="2"/>
    <line x1="-130" y1="-80" x2="-110" y2="-80" stroke="#ffffff" stroke-width="2"/>
    <line x1="-130" y1="-60" x2="-110" y2="-60" stroke="#ffffff" stroke-width="2"/>
    
    <line x1="-60" y1="-65" x2="-60" y2="-45" stroke="#ffffff" stroke-width="2"/>
    <line x1="-70" y1="-65" x2="-50" y2="-65" stroke="#ffffff" stroke-width="2"/>
    <line x1="-70" y1="-45" x2="-50" y2="-45" stroke="#ffffff" stroke-width="2"/>
    
    <line x1="0" y1="-95" x2="0" y2="-75" stroke="#ffffff" stroke-width="2"/>
    <line x1="-10" y1="-95" x2="10" y2="-95" stroke="#ffffff" stroke-width="2"/>
    <line x1="-10" y1="-75" x2="10" y2="-75" stroke="#ffffff" stroke-width="2"/>
    
    <line x1="60" y1="-80" x2="60" y2="-60" stroke="#ffffff" stroke-width="2"/>
    <line x1="50" y1="-80" x2="70" y2="-80" stroke="#ffffff" stroke-width="2"/>
    <line x1="50" y1="-60" x2="70" y2="-60" stroke="#ffffff" stroke-width="2"/>
    
    <line x1="120" y1="-55" x2="120" y2="-35" stroke="#ffffff" stroke-width="2"/>
    <line x1="110" y1="-55" x2="130" y2="-55" stroke="#ffffff" stroke-width="2"/>
    <line x1="110" y1="-35" x2="130" y2="-35" stroke="#ffffff" stroke-width="2"/>
    
    <line x1="180" y1="-75" x2="180" y2="-55" stroke="#ffffff" stroke-width="2"/>
    <line x1="170" y1="-75" x2="190" y2="-75" stroke="#ffffff" stroke-width="2"/>
    <line x1="170" y1="-55" x2="190" y2="-55" stroke="#ffffff" stroke-width="2"/>
    
    <!-- Significance star -->
    <text x="0" y="-105" font-family="Arial, sans-serif" font-size="20" fill="#ffc107" text-anchor="middle">*</text>
    
    <!-- Trend line -->
    <path d="M-180,-30 C-150,-60 -120,-70 -60,-55 C0,-70 60,-70 180,-65" fill="none" stroke="#dc3545" stroke-width="2" stroke-dasharray="5,3"/>
  </g>
  
  <!-- Statistical Analysis Box -->
  <g transform="translate(120, 80)">
    <rect x="-100" y="-30" width="200" height="120" rx="10" ry="10" fill="#343a40" stroke="#17a2b8" stroke-width="2"/>
    <text x="0" y="-10" font-family="Arial, sans-serif" font-size="16" fill="#17a2b8" text-anchor="middle" font-weight="bold">Statistical Analysis</text>
    
    <text x="-90" y="20" font-family="Arial, sans-serif" font-size="14" fill="#ffffff" text-anchor="start">p-value: 0.032</text>
    <text x="-90" y="45" font-family="Arial, sans-serif" font-size="14" fill="#ffffff" text-anchor="start">Mean: 67.4 ± 5.2</text>
    <text x="-90" y="70" font-family="Arial, sans-serif" font-size="14" fill="#ffffff" text-anchor="start">t-test: significant</text>
    <text x="-90" y="95" font-family="Arial, sans-serif" font-size="14" fill="#ffffff" text-anchor="start">Effect size: 0.78</text>
  </g>
  
  <!-- Data Types Box -->
  <g transform="translate(580, 80)">
    <rect x="-100" y="-30" width="200" height="120" rx="10" ry="10" fill="#343a40" stroke="#fd7e14" stroke-width="2"/>
    <text x="0" y="-10" font-family="Arial, sans-serif" font-size="16" fill="#fd7e14" text-anchor="middle" font-weight="bold">Data Types</text>
    
    <circle cx="-80" cy="20" r="6" fill="#fd7e14"/>
    <text x="-65" y="25" font-family="Arial, sans-serif" font-size="14" fill="#ffffff" text-anchor="start">Quantitative</text>
    
    <circle cx="-80" cy="50" r="6" fill="#fd7e14"/>
    <text x="-65" y="55" font-family="Arial, sans-serif" font-size="14" fill="#ffffff" text-anchor="start">Qualitative</text>
    
    <circle cx="-80" cy="80" r="6" fill="#fd7e14"/>
    <text x="-65" y="85" font-family="Arial, sans-serif" font-size="14" fill="#ffffff" text-anchor="start">Categorical</text>
  </g>
  
  <!-- Interpretation Caution Box -->
  <rect x="150" y="340" width="400" height="50" rx="10" ry="10" fill="#343a40" stroke="#dc3545" stroke-width="2"/>
  <text x="350" y="360" font-family="Arial, sans-serif" font-size="16" fill="#dc3545" text-anchor="middle" font-weight="bold">Important Considerations</text>
  <text x="350" y="380" font-family="Arial, sans-serif" font-size="14" fill="#ffffff" text-anchor="middle" font-style="italic">Correlation ≠ Causation | Consider Limitations | Context Matters</text>
</svg>
