<?xml version="1.0" encoding="UTF-8" standalone="no"?>
<svg width="100" height="100" viewBox="0 0 100 100" xmlns="http://www.w3.org/2000/svg">
  <!-- Simple, smooth cartoon brain -->
  <g fill="#007bff">
    <!-- Left hemisphere -->
    <path d="M35,20 C25,20 15,30 15,45 C15,60 20,70 30,75 C35,78 40,80 45,80 L45,30 C45,25 40,20 35,20 Z" 
          fill-opacity="0.9" stroke="none" />
      
    <!-- Right hemisphere -->
    <path d="M65,20 C75,20 85,30 85,45 C85,60 80,70 70,75 C65,78 60,80 55,80 L55,30 C55,25 60,20 65,20 Z" 
          fill-opacity="0.9" stroke="none" />
          
    <!-- Top connections -->
    <path d="M35,20 C40,15 60,15 65,20" stroke="#007bff" stroke-width="10" fill="none" stroke-linecap="round" />
    
    <!-- Bottom part -->
    <path d="M45,80 C47,82 53,82 55,80" stroke="#007bff" stroke-width="10" fill="none" stroke-linecap="round" />
    
    <!-- Brain folds - left side -->
    <path d="M25,35 C30,32 35,35 35,40" stroke="#005cbf" stroke-width="4" fill="none" stroke-linecap="round" />
    <path d="M20,50 C25,47 30,50 30,55" stroke="#005cbf" stroke-width="4" fill="none" stroke-linecap="round" />
    <path d="M25,65 C32,62 35,65 38,70" stroke="#005cbf" stroke-width="4" fill="none" stroke-linecap="round" />
    
    <!-- Brain folds - right side -->
    <path d="M75,35 C70,32 65,35 65,40" stroke="#005cbf" stroke-width="4" fill="none" stroke-linecap="round" />
    <path d="M80,50 C75,47 70,50 70,55" stroke="#005cbf" stroke-width="4" fill="none" stroke-linecap="round" />
    <path d="M75,65 C68,62 65,65 62,70" stroke="#005cbf" stroke-width="4" fill="none" stroke-linecap="round" />
  </g>
</svg>